<?xml version="1.0" encoding="UTF-8"?>
<svg xmlns="http://www.w3.org/2000/svg" version="1.1" viewBox="0 0 600 600">
  <defs>
    <style>
      .cls-1 {
        fill: #71ba42;
        stroke: #71ba42;
      }

      .cls-1, .cls-2 {
        stroke-miterlimit: 10;
        stroke-width: 2.11px;
      }

      .cls-2 {
        fill: #32a45d;
        stroke: #32a45d;
      }
    </style>
  </defs>
  <!-- Generator: Adobe Illustrator 28.7.7, SVG Export Plug-In . SVG Version: 1.2.0 Build 194)  -->
  <g>
    <g id="_圖層_1" data-name="圖層_1">
      <g>
        <g>
          <path class="cls-1" d="M230.5,370.28l-49.41-176.23,262.02-73.46,49.41,176.23-262.03,73.46ZM192.88,200.67l44.25,157.82,243.62-68.3-44.25-157.82-243.61,68.3Z"/>
          <polygon class="cls-1" points="226.01 323.21 217.38 319.09 251.43 247.88 338.71 284.25 385.71 244.49 476.89 252.48 476.05 262 388.84 254.37 340.43 295.32 256.14 260.2 226.01 323.21"/>
          <path class="cls-1" d="M380.74,208.2c-2.7,0-5.38-.69-7.8-2.06-3.72-2.09-6.4-5.5-7.55-9.61-1.15-4.11-.63-8.42,1.45-12.13,2.09-3.72,5.5-6.4,9.61-7.55,8.48-2.38,17.31,2.59,19.69,11.06h0c2.38,8.48-2.59,17.31-11.06,19.69-1.43.4-2.89.6-4.34.6ZM380.76,185.81c-.57,0-1.15.08-1.73.24-1.65.46-3.02,1.54-3.86,3.03s-1.05,3.22-.58,4.87c.46,1.65,1.54,3.02,3.03,3.86,1.49.84,3.22,1.05,4.87.58,3.4-.95,5.39-4.5,4.44-7.9-.79-2.83-3.37-4.68-6.17-4.68Z"/>
        </g>
        <g>
          <path class="cls-2" d="M505.93,411.13H188.11v-18.09l21.13-11.02h270.21l47.96-179.29H169.88l-16.29-60.91-71.06-44.84c-3.13-1.97-7.26-1.04-9.23,2.09-1.97,3.12-1.04,7.26,2.09,9.23l66.62,42.04,14.01,52.39h0l45.06,168.45-26.36,13.75v39.58h331.2c3.7,0,6.69-3,6.69-6.69s-3-6.69-6.69-6.69ZM509.97,216.12l-40.79,152.52h-254.91l-40.8-152.52h336.51Z"/>
          <path class="cls-2" d="M240.55,430.52c-20.27,0-36.77,16.49-36.77,36.77s16.49,36.77,36.77,36.77,36.77-16.49,36.77-36.77-16.49-36.77-36.77-36.77ZM240.55,490.67c-12.89,0-23.38-10.49-23.38-23.39s10.49-23.39,23.38-23.39,23.39,10.49,23.39,23.39-10.49,23.39-23.39,23.39Z"/>
          <path class="cls-2" d="M442.89,430.52c-20.28,0-36.77,16.49-36.77,36.77s16.49,36.77,36.77,36.77,36.77-16.49,36.77-36.77-16.49-36.77-36.77-36.77ZM442.89,490.67c-12.89,0-23.39-10.49-23.39-23.39s10.49-23.39,23.39-23.39,23.38,10.49,23.38,23.39-10.49,23.39-23.38,23.39Z"/>
        </g>
      </g>
    </g>
  </g>
</svg>