<?xml version="1.0" encoding="UTF-8"?>
<svg xmlns="http://www.w3.org/2000/svg" version="1.1" viewBox="0 0 94.49 94.49">
  <defs>
    <style>
      .cls-1 {
        fill: #868686;
      }
    </style>
  </defs>
  <!-- Generator: Adobe Illustrator 28.7.7, SVG Export Plug-In . SVG Version: 1.2.0 Build 194)  -->
  <g>
    <g id="_圖層_1" data-name="圖層_1">
      <g>
        <path class="cls-1" d="M45.56,35.13c13.71-1.13,23.11,13.57,16.31,25.57s-24.9,11.17-30.52-1.61c-4.71-10.73,2.58-23,14.21-23.96ZM45.84,39.7c-9.73.86-14.71,12.19-8.87,20.05,5.47,7.35,17,6.39,21.19-1.74,4.55-8.85-2.45-19.18-12.32-18.31Z"/>
        <path class="cls-1" d="M69.36,37.41c3.21-.52,3.68,4.05.93,4.49-3.21.52-3.68-4.05-.93-4.49Z"/>
        <path class="cls-1" d="M39.23,17.69c5.08.21,10.62-.43,15.65-.05,3.08.23,5.85,2.22,7.08,5.04.25.57,1.22,3.91,1.39,4.02,3.38.31,7-.19,10.35.06,4.16.31,7.41,3.64,7.77,7.77v34.66c-.38,4.17-3.6,7.41-7.77,7.77H20.79c-4.16-.36-7.41-3.61-7.77-7.77v-34.66c.35-4.12,3.62-7.46,7.77-7.77,3.35-.25,6.97.25,10.35-.06.18-.12,1.15-3.46,1.39-4.02,1.19-2.72,3.75-4.61,6.7-4.99ZM39.65,22.25c-3.55.48-3.55,5.16-4.79,7.76-.42.89-1.11,1.25-2.09,1.33-3.74.33-8.33-.47-11.97,0-1.7.22-3.1,1.77-3.23,3.48v34.09c.17,1.88,1.61,3.32,3.49,3.49h52.34c1.88-.17,3.32-1.61,3.49-3.49v-34.09c-.13-1.7-1.52-3.25-3.23-3.48-3.64-.48-8.23.33-11.97,0-.98-.09-1.66-.44-2.09-1.33-1.37-2.87-1.14-7.46-5.17-7.8-4.71-.4-10.03.28-14.8.04Z"/>
      </g>
    </g>
  </g>
</svg>