<?xml version="1.0" encoding="UTF-8"?>
<svg xmlns="http://www.w3.org/2000/svg" version="1.1" viewBox="0 0 846.05 607.76">
  <defs>
    <style>
      .cls-1, .cls-2 {
        fill: #fff;
        stroke: #fff;
        stroke-miterlimit: 10;
      }

      .cls-2 {
        stroke-width: 2.11px;
      }
    </style>
  </defs>
  <!-- Generator: Adobe Illustrator 28.7.7, SVG Export Plug-In . SVG Version: 1.2.0 Build 194)  -->
  <g>
    <g id="_圖層_1" data-name="圖層_1">
      <g>
        <g>
          <path class="cls-1" d="M77.91,541.89c1.41,3.77,5.18,6.41,11.5,6.41,5,0,8.1-1.6,8.1-4.9,0-5-7.07-4.43-15.17-6.41-8.96-2.17-19.98-6.6-19.98-20.73s10.75-20.74,25.82-20.74c13.76,0,23.56,5.56,27.43,17.44l-17.25,4.62c-1.51-4.05-4.9-6.22-10.56-6.22-5.09,0-6.97,1.79-6.97,4.43,0,4.62,5.75,5.18,14.98,7.07,9.61,1.88,20.08,6.31,20.08,20.55s-9.8,20.73-26.3,20.73c-11.59,0-24.69-3.39-28.94-17.62l17.25-4.62Z"/>
          <path class="cls-1" d="M155.57,495.52c20.45,0,34.97,14.23,34.97,34.31s-14.51,34.31-34.97,34.31-34.97-14.23-34.97-34.31,14.52-34.31,34.97-34.31ZM155.57,547.08c9.8,0,16.78-6.79,16.78-17.25s-6.97-17.25-16.78-17.25-16.78,6.79-16.78,17.25,6.98,17.25,16.78,17.25Z"/>
          <path class="cls-1" d="M230.68,495.52c20.45,0,34.97,14.23,34.97,34.31s-14.52,34.31-34.97,34.31-34.97-14.23-34.97-34.31,14.51-34.31,34.97-34.31ZM230.68,547.08c9.8,0,16.78-6.79,16.78-17.25s-6.98-17.25-16.78-17.25-16.77,6.79-16.77,17.25,6.97,17.25,16.77,17.25Z"/>
          <path class="cls-1" d="M291,527.38h-.38c0,.09.19,8.39.19,16.97v18.47h-18.1v-65.98h18.38l25.07,34.59h.38c0-.09-.09-8.77-.09-15.74v-18.85h18.09v65.98h-18.38l-25.16-35.44Z"/>
          <path class="cls-1" d="M362.25,527.38h-.38c0,.09.19,8.39.19,16.97v18.47h-18.1v-65.98h18.38l25.07,34.59h.38c0-.09-.09-8.77-.09-15.74v-18.85h18.1v65.98h-18.38l-25.16-35.44Z"/>
          <path class="cls-1" d="M415.22,496.84h49.1v16.78h-31.01v8.58h22.43v15.08h-22.43v8.76h31.57v16.78h-49.67v-65.98Z"/>
          <path class="cls-1" d="M509,513.62v49.2h-18.1v-49.2h-19.42v-16.78h56.93v16.78h-19.42Z"/>
          <path class="cls-1" d="M585.81,550.47c0-17.15.19-23.28.19-23.37h-.28c-.1.09-3.39,6.22-5.85,10.56l-4.9,8.86h-9.99l-4.9-8.77c-2.55-4.43-5.75-10.56-5.85-10.65h-.38c0,.09.19,6.22.19,23.37v12.35h-18.09v-65.98h19.22l14.89,26.58h.38l14.98-26.58h18.48v65.98h-18.1v-12.35Z"/>
          <path class="cls-1" d="M631.71,553.67l-3.11,9.14h-19.04l24.79-65.98h20.64l24.79,65.98h-19.32l-3.11-9.14h-25.64ZM647.54,525.31c-1.88-5.37-2.73-8.01-2.83-8.11h-.38c-.09.09-.94,2.64-2.83,8.01l-4.15,12.06h14.33l-4.15-11.97Z"/>
          <path class="cls-1" d="M685.43,496.84h18.09v49.2h28.18v16.78h-46.28v-65.98Z"/>
          <path class="cls-1" d="M739.24,496.84h18.1v49.2h28.18v16.78h-46.28v-65.98Z"/>
        </g>
        <g>
          <g>
            <path class="cls-2" d="M313.8,318.52l-49.41-176.23,262.02-73.46,49.41,176.23-262.03,73.46ZM276.18,148.91l44.25,157.82,243.62-68.3-44.25-157.82-243.61,68.3Z"/>
            <polygon class="cls-2" points="309.31 271.45 300.68 267.32 334.73 196.11 422.01 232.48 469.01 192.73 560.18 200.72 559.35 210.24 472.14 202.6 423.72 243.55 339.44 208.43 309.31 271.45"/>
            <path class="cls-2" d="M464.04,156.43c-2.7,0-5.38-.69-7.8-2.06-3.72-2.09-6.4-5.5-7.55-9.61-1.15-4.11-.63-8.42,1.45-12.13,2.09-3.72,5.5-6.4,9.61-7.55,8.48-2.38,17.31,2.59,19.69,11.06h0c2.38,8.48-2.59,17.31-11.06,19.69-1.43.4-2.89.6-4.34.6ZM464.06,134.05c-.57,0-1.15.08-1.73.24-1.65.46-3.02,1.54-3.86,3.03s-1.05,3.22-.58,4.87c.46,1.65,1.54,3.02,3.03,3.86,1.49.84,3.22,1.05,4.87.58,3.4-.95,5.39-4.5,4.44-7.9-.79-2.83-3.37-4.68-6.17-4.68Z"/>
          </g>
          <g>
            <path class="cls-2" d="M589.23,359.36h-317.82v-18.09l21.13-11.02h270.21l47.96-179.29H253.18l-16.29-60.91-71.06-44.84c-3.13-1.97-7.26-1.04-9.23,2.09-1.97,3.12-1.04,7.26,2.09,9.23l66.62,42.04,14.01,52.39h0l45.06,168.45-26.36,13.75v39.58h331.2c3.7,0,6.69-3,6.69-6.69s-3-6.69-6.69-6.69ZM593.27,164.35l-40.79,152.52h-254.91l-40.8-152.52h336.51Z"/>
            <path class="cls-2" d="M323.85,378.75c-20.27,0-36.77,16.49-36.77,36.77s16.49,36.77,36.77,36.77,36.77-16.49,36.77-36.77-16.49-36.77-36.77-36.77ZM323.85,438.9c-12.89,0-23.38-10.49-23.38-23.39s10.49-23.39,23.38-23.39,23.39,10.49,23.39,23.39-10.49,23.39-23.39,23.39Z"/>
            <path class="cls-2" d="M526.18,378.75c-20.28,0-36.77,16.49-36.77,36.77s16.49,36.77,36.77,36.77,36.77-16.49,36.77-36.77-16.49-36.77-36.77-36.77ZM526.18,438.9c-12.89,0-23.39-10.49-23.39-23.39s10.49-23.39,23.39-23.39,23.38,10.49,23.38,23.39-10.49,23.39-23.38,23.39Z"/>
          </g>
        </g>
      </g>
    </g>
  </g>
</svg>