<?xml version="1.0" encoding="UTF-8"?>
<svg xmlns="http://www.w3.org/2000/svg" version="1.1" viewBox="0 0 94.49 94.49">
  <defs>
    <style>
      .cls-1 {
        fill: #868686;
      }
    </style>
  </defs>
  <!-- Generator: Adobe Illustrator 28.7.7, SVG Export Plug-In . SVG Version: 1.2.0 Build 194)  -->
  <g>
    <g id="_圖層_1" data-name="圖層_1">
      <g>
        <path class="cls-1" d="M33.56,19.85h9.13v-3.07c0-.18.44-1.19.57-1.43,1.65-3.08,6.24-3.15,7.92-.07.2.36.64,1.28.64,1.64v2.92h9.13v-3.07c0-.18.44-1.19.57-1.43,1.65-3.08,6.24-3.15,7.92-.07.2.36.64,1.28.64,1.64v2.92h6.49c2.22,0,4.92,2.97,4.92,5.21v30.23c-.19,1.67-2.28,1.05-2.28.28v-19.75H15.31v36c0,1.03,1.84,2.75,2.94,2.77h32.5c1.44.15,1.44,2.15,0,2.3H18.37c-2.89-.23-5.1-2.46-5.35-5.34V25.05c0-2.23,2.71-5.21,4.92-5.21h6.49v-3.07c0-.18.44-1.19.57-1.43,1.65-3.08,6.24-3.15,7.92-.07.2.36.64,1.28.64,1.64v2.92ZM28.53,15.32c-.85.14-1.64.95-1.78,1.78-.23,1.39-.19,6.05-.03,7.52.29,2.7,4.12,2.7,4.53.25.23-1.39.19-6.05.03-7.52s-1.37-2.26-2.75-2.03ZM46.78,15.32c-.85.14-1.64.95-1.78,1.78-.23,1.39-.19,6.05-.03,7.52.29,2.7,4.12,2.7,4.53.25.23-1.39.19-6.05.03-7.52s-1.37-2.26-2.75-2.03ZM65.03,15.32c-.85.14-1.64.95-1.78,1.78-.23,1.39-.19,6.05-.03,7.52.29,2.7,4.12,2.7,4.53.25.23-1.39.19-6.05.03-7.52s-1.37-2.26-2.75-2.03ZM24.43,22.13h-6.34c-.93,0-2.78,1.85-2.78,2.78v8.63h63.88v-8.63c0-.93-1.85-2.78-2.78-2.78h-6.34v2.92c0,.36-.44,1.28-.64,1.64-1.67,3.07-6.28,2.99-7.92-.07-.13-.24-.57-1.25-.57-1.43v-3.07h-9.13v2.92c0,.36-.44,1.28-.64,1.64-1.67,3.07-6.28,2.99-7.92-.07-.13-.24-.57-1.25-.57-1.43v-3.07h-9.13v2.92c0,.36-.44,1.28-.64,1.64-1.67,3.07-6.28,2.99-7.92-.07-.13-.24-.57-1.25-.57-1.43v-3.07Z"/>
        <path class="cls-1" d="M77.14,56.11c7.52,7.52,4.8,20.42-5.05,24.3-12.06,4.74-23.93-7.18-19.25-19.25,3.83-9.87,16.79-12.55,24.3-5.05ZM65.47,54.11c-9.73.86-14.71,12.19-8.87,20.05,5.47,7.35,17,6.39,21.19-1.74,4.55-8.85-2.45-19.18-12.32-18.31Z"/>
        <path class="cls-1" d="M23.97,41.55c.98-.17,4.36-.16,5.37-.02s1.82,1.01,1.94,2.05c.1.89.1,2.95,0,3.85-.12,1.11-.95,1.94-2.07,2.07s-3.85.12-4.99,0c-1.11-.12-1.94-.95-2.07-2.07-.1-.87-.11-3.27.03-4.1s.95-1.64,1.78-1.78ZM28.99,43.8h-4.56v3.42h4.56v-3.42Z"/>
        <path class="cls-1" d="M37.65,41.55c.98-.17,4.36-.16,5.37-.02s1.82,1.01,1.94,2.05c.1.89.1,2.95,0,3.85-.12,1.11-.95,1.94-2.07,2.07s-3.85.12-4.99,0c-1.11-.12-1.94-.95-2.07-2.07-.1-.87-.11-3.27.03-4.1s.95-1.64,1.78-1.78ZM42.68,43.8h-4.56v3.42h4.56v-3.42Z"/>
        <path class="cls-1" d="M51.34,41.55c.98-.17,4.36-.16,5.37-.02s1.82,1.01,1.94,2.05c.1.89.1,2.95,0,3.85-.12,1.11-.95,1.94-2.07,2.07s-3.85.12-4.99,0c-1.11-.12-1.94-.95-2.07-2.07-.1-.87-.11-3.27.03-4.1s.95-1.64,1.78-1.78ZM56.37,43.8h-4.56v3.42h4.56v-3.42Z"/>
        <path class="cls-1" d="M65.03,41.55c.98-.17,4.36-.16,5.37-.02s1.82,1.01,1.94,2.05c.1.89.1,2.95,0,3.85-.12,1.11-.95,1.94-2.07,2.07s-3.85.12-4.99,0c-1.11-.12-1.94-.95-2.07-2.07-.1-.87-.11-3.27.03-4.1s.95-1.64,1.78-1.78ZM70.06,43.8h-4.56v3.42h4.56v-3.42Z"/>
        <path class="cls-1" d="M23.97,51.82c.98-.17,4.36-.16,5.37-.02s1.82,1.01,1.94,2.05c.1.89.1,2.95,0,3.85-.12,1.11-.95,1.94-2.07,2.07s-3.85.12-4.99,0c-1.11-.12-1.94-.95-2.07-2.07-.1-.87-.11-3.27.03-4.1s.95-1.64,1.78-1.78ZM28.99,54.07h-4.56v3.42h4.56v-3.42Z"/>
        <path class="cls-1" d="M37.65,51.82c.98-.17,4.36-.16,5.37-.02s1.82,1.01,1.94,2.05c.1.89.1,2.95,0,3.85-.12,1.11-.95,1.94-2.07,2.07s-3.85.12-4.99,0c-1.11-.12-1.94-.95-2.07-2.07-.1-.87-.11-3.27.03-4.1s.95-1.64,1.78-1.78ZM42.68,54.07h-4.56v3.42h4.56v-3.42Z"/>
        <path class="cls-1" d="M23.97,62.09c.98-.17,4.36-.16,5.37-.02,1.04.14,1.82,1.01,1.94,2.05.1.89.1,2.95,0,3.85-.12,1.11-.95,1.94-2.07,2.07-1.14.13-3.85.12-4.99,0-1.11-.12-1.94-.95-2.07-2.07-.1-.87-.11-3.27.03-4.1s.95-1.64,1.78-1.78ZM28.99,64.33h-4.56v3.42h4.56v-3.42Z"/>
        <path class="cls-1" d="M37.65,62.09c.98-.17,4.36-.16,5.37-.02,1.04.14,1.82,1.01,1.94,2.05.1.89.1,2.95,0,3.85-.12,1.11-.95,1.94-2.07,2.07-1.14.13-3.85.12-4.99,0-1.11-.12-1.94-.95-2.07-2.07-.1-.87-.11-3.27.03-4.1s.95-1.64,1.78-1.78ZM42.68,64.33h-4.56v3.42h4.56v-3.42Z"/>
        <path class="cls-1" d="M51.81,54.07v3.42c0,.08,1.01-.06,1.14.94.26,2.07-3.03,1.61-3.38-.47-.14-.82-.14-3.39-.02-4.23.14-1.05,1.02-1.82,2.05-1.94.75-.08,4.65-.11,5.21.06,1.17.37.66,2.22-.08,2.22h-4.92Z"/>
        <path class="cls-1" d="M73.87,61.51c.97-.13,1.71,1.11,1.03,1.9l-10.12,9.99c-.43.15-.88.09-1.22-.22l-5.07-5.19c-.48-.97.69-2.04,1.62-1.47l4.29,4.09,8.78-8.76c.18-.16.45-.29.69-.33Z"/>
      </g>
    </g>
  </g>
</svg>