<?xml version="1.0" encoding="UTF-8"?>
<svg xmlns="http://www.w3.org/2000/svg" version="1.1" viewBox="0 0 94.49 94.49">
  <defs>
    <style>
      .cls-1 {
        fill: #868686;
      }
    </style>
  </defs>
  <!-- Generator: Adobe Illustrator 28.7.7, SVG Export Plug-In . SVG Version: 1.2.0 Build 194)  -->
  <g>
    <g id="_圖層_1" data-name="圖層_1">
      <path class="cls-1" d="M82.69,45.15v4.15c-.21.85-.18,1.8-.3,2.68-2.04,15.62-14.76,28.38-30.39,30.39-.88.11-1.83.09-2.68.3-1.38-.06-2.78.08-4.15,0C14.86,80.99.55,43.69,22.19,22.11c21.61-21.55,58.81-7.22,60.5,23.04ZM70.78,67.58c.27.07.27-.11.39-.23,1.58-1.56,3.49-4.88,4.44-6.92,8.23-17.71-1.72-38.76-20.55-43.52-22.09-5.59-42.32,13.2-38.65,35.61.91,5.56,3.49,10.79,7.09,15.06.3.06.18-.12.24-.31.29-.91.52-1.85.87-2.74,2.43-6.21,7.86-11.58,14.19-13.71.18-.2-1.13-1.06-1.32-1.24-6.91-6.35-6.98-17.12.56-22.98,11.18-8.69,26.94,1.52,23.7,15.25-.84,3.55-3.13,6.66-6.05,8.76.96.57,2.02.91,3,1.43,5.92,3.15,10.59,8.97,12.09,15.53ZM46.11,27.61c-7.09.73-11.53,8.22-8.81,14.83,3.37,8.2,14.84,8.97,19.25,1.29,4.39-7.64-1.73-17.01-10.44-16.11ZM67.3,71.3c-1.68-14.62-18.04-22.72-30.71-14.85-5.2,3.23-8.65,8.7-9.44,14.78,10.39,8.65,25.3,9.7,36.78,2.45,1.17-.74,2.23-1.61,3.37-2.38Z"/>
    </g>
  </g>
</svg>