<?xml version="1.0" encoding="UTF-8"?>
<svg xmlns="http://www.w3.org/2000/svg" version="1.1" viewBox="0 0 94.49 94.49">
  <defs>
    <style>
      .cls-1 {
        fill: #868686;
      }
    </style>
  </defs>
  <!-- Generator: Adobe Illustrator 28.7.7, SVG Export Plug-In . SVG Version: 1.2.0 Build 194)  -->
  <g>
    <g id="_圖層_1" data-name="圖層_1">
      <path class="cls-1" d="M83.23,26.77l-8.8,30.08c-.45.59-1.04.99-1.81,1h-38.39c-2.56.46-2.48,3.74,0,4.21h38.8c1.61.31,2.32,2.24,1.27,3.51-.13.15-1.02.71-1.12.71h-4.01l1.58.46c7.18,2.87,3.88,13.74-3.72,12.02-6.02-1.36-6.56-9.83-.85-12.02l1.58-.46h-28.4l1.58.46c7.18,2.87,3.88,13.74-3.72,12.02-6.02-1.36-6.56-9.83-.85-12.02l1.58-.46h-4.15c-1.65,0-3.91-1.61-4.74-3-1.82-3.05-.97-6.56,1.87-8.59.3-.21.95-.34.96-.7l-7.57-34.02-11.44-.11c-2.38-.7-2.13-3.95.38-4.19,4.08.29,8.64-.36,12.67,0,1.1.1,1.69.54,2.1,1.55l1.56,6.9h51.73c1.01.15,1.45.7,1.89,1.54v1.12ZM78.31,28.32H30.51l5.83,25.31,34.79-.02,7.18-25.29ZM40.17,71.11c-1.95-1.95-4.95,1.05-3,3s4.95-1.05,3-3ZM69.97,71.11c-1.95-1.95-4.95,1.05-3,3,1.95,1.95,4.95-1.05,3-3Z"/>
    </g>
  </g>
</svg>